<svg width="406" height="64" viewBox="0 0 406 64" fill="none" xmlns="http://www.w3.org/2000/svg">
<path d="M43.5947 23.9722C42.9674 23.6968 42.2331 23.4214 41.3916 23.146C40.5654 22.8553 39.6934 22.5952 38.7754 22.3657C37.8727 22.1362 36.9548 21.9526 36.0215 21.8149C35.0882 21.6619 34.2085 21.5854 33.3823 21.5854C31.9442 21.5854 30.8197 21.769 30.0088 22.1362C29.1979 22.5034 28.7925 23.123 28.7925 23.9951C28.7925 24.4082 28.9302 24.7754 29.2056 25.0967C29.4963 25.4027 29.9017 25.6934 30.4219 25.9688C30.9421 26.2288 31.5617 26.4889 32.2808 26.749C33.0151 26.9938 33.826 27.2539 34.7134 27.5293L36.3887 28.0571C37.7962 28.4855 39.0584 29.0057 40.1753 29.6177C41.2922 30.2144 42.2331 30.9258 42.998 31.752C43.7783 32.5628 44.375 33.4961 44.7881 34.5518C45.2012 35.6074 45.4077 36.8084 45.4077 38.1548C45.4077 39.7306 45.1553 41.1688 44.6504 42.4692C44.1608 43.7544 43.3882 44.856 42.3325 45.7739C41.2769 46.6919 39.9229 47.4033 38.2705 47.9082C36.6335 48.4131 34.6598 48.6655 32.3496 48.6655C30.2995 48.6655 28.257 48.4972 26.2222 48.1606C24.2026 47.8241 22.1602 47.235 20.0947 46.3936V38.8203C22.0684 39.8301 23.9808 40.5721 25.832 41.0464C27.6986 41.5054 29.5345 41.7349 31.3398 41.7349C32.8239 41.7349 33.9025 41.4977 34.5757 41.0234C35.2642 40.5492 35.6084 39.8913 35.6084 39.0498C35.6084 38.5449 35.4784 38.1165 35.2183 37.7646C34.9735 37.3975 34.568 37.0609 34.002 36.7549C33.4512 36.4489 32.7244 36.1429 31.8218 35.8369C30.9191 35.5156 29.8252 35.1561 28.54 34.7583C27.2549 34.3758 26.0615 33.8939 24.96 33.3125C23.8737 32.7311 22.9328 32.035 22.1372 31.2241C21.3416 30.3979 20.7144 29.4417 20.2554 28.3555C19.8117 27.2692 19.5898 26.0299 19.5898 24.6377C19.5898 23.1995 19.8423 21.8838 20.3472 20.6904C20.8521 19.4971 21.6247 18.4797 22.665 17.6382C23.7054 16.7814 25.0212 16.1159 26.6123 15.6416C28.2188 15.1673 30.1235 14.9302 32.3267 14.9302C33.1987 14.9302 34.1243 14.9684 35.1035 15.0449C36.0827 15.1214 37.0771 15.2362 38.0869 15.3892C39.112 15.5422 40.1217 15.741 41.1162 15.9858C42.1107 16.2306 43.0516 16.5213 43.939 16.8579L43.5947 23.9722ZM52.1089 12.75H62.0229V48H52.1089V12.75ZM85.5229 23.2378H95.5518C95.4141 23.6815 95.2993 24.0946 95.2075 24.4771C95.1157 24.8442 95.0469 25.2114 95.001 25.5786C94.9551 25.9458 94.9168 26.3206 94.8862 26.7031C94.8709 27.0703 94.8633 27.4681 94.8633 27.8965C95.2764 27.208 95.8118 26.5425 96.4697 25.8999C97.1276 25.2573 97.862 24.6989 98.6729 24.2246C99.499 23.735 100.371 23.3449 101.289 23.0542C102.222 22.7635 103.163 22.6182 104.112 22.6182C104.861 22.6182 105.596 22.7253 106.315 22.9395C107.049 23.1536 107.745 23.4749 108.403 23.9033C109.061 24.3317 109.666 24.8595 110.216 25.4868C110.767 26.1141 111.241 26.8485 111.639 27.6899C112.113 26.9556 112.725 26.2824 113.475 25.6704C114.24 25.0431 115.082 24.5076 116 24.064C116.917 23.605 117.889 23.2531 118.914 23.0083C119.954 22.7482 120.987 22.6182 122.012 22.6182C123.665 22.6182 125.064 22.8553 126.212 23.3296C127.375 23.8039 128.308 24.4771 129.012 25.3491C129.731 26.2212 130.251 27.2692 130.572 28.4932C130.894 29.7171 131.054 31.0711 131.054 32.5552V48H121.14V34.001C121.14 33.5573 121.087 33.0524 120.979 32.4863C120.888 31.9049 120.704 31.3618 120.429 30.8569C120.153 30.3368 119.771 29.9007 119.281 29.5488C118.807 29.1969 118.18 29.021 117.399 29.021C116.864 29.021 116.359 29.151 115.885 29.4111C115.41 29.6712 114.99 30.0155 114.623 30.4438C114.255 30.8722 113.965 31.3618 113.75 31.9126C113.536 32.4634 113.429 33.0295 113.429 33.6108V48H103.515V34.001C103.515 33.3737 103.454 32.7617 103.332 32.165C103.224 31.5684 103.033 31.0405 102.758 30.5815C102.482 30.1073 102.108 29.7324 101.633 29.457C101.159 29.1663 100.562 29.021 99.8433 29.021C99.3384 29.021 98.8182 29.1204 98.2827 29.3193C97.7625 29.5029 97.2882 29.763 96.8599 30.0996C96.4468 30.4209 96.1025 30.811 95.8271 31.27C95.5671 31.729 95.437 32.2262 95.437 32.7617V48H85.5229V23.2378ZM160.98 47.0132C159.542 47.4875 157.989 47.8776 156.321 48.1836C154.654 48.5049 152.917 48.6655 151.112 48.6655C149.138 48.6655 147.256 48.4054 145.466 47.8853C143.676 47.3651 142.1 46.5542 140.739 45.4526C139.377 44.3511 138.291 42.9588 137.48 41.2759C136.684 39.5776 136.287 37.5581 136.287 35.2173C136.287 33.8862 136.493 32.6546 136.906 31.5225C137.319 30.375 137.878 29.3346 138.582 28.4014C139.301 27.4681 140.134 26.6419 141.083 25.9229C142.047 25.2038 143.072 24.5994 144.158 24.1099C145.26 23.6203 146.392 23.2531 147.555 23.0083C148.717 22.7482 149.857 22.6182 150.974 22.6182C152.734 22.6182 154.286 22.8171 155.633 23.2148C156.979 23.5973 158.096 24.1175 158.983 24.7754C159.886 25.4333 160.567 26.1982 161.026 27.0703C161.485 27.9424 161.714 28.868 161.714 29.8472C161.714 31.0405 161.508 32.0579 161.095 32.8994C160.697 33.7409 160.154 34.4523 159.465 35.0337C158.792 35.5998 158.004 36.0511 157.102 36.3877C156.214 36.709 155.273 36.9614 154.279 37.145C153.284 37.3133 152.267 37.4204 151.227 37.4663C150.201 37.5122 149.222 37.5352 148.289 37.5352C147.968 37.5352 147.654 37.5352 147.348 37.5352C147.057 37.5199 146.767 37.5122 146.476 37.5122C146.598 38.3843 146.836 39.1187 147.188 39.7153C147.555 40.312 148.006 40.8016 148.542 41.1841C149.092 41.5513 149.72 41.819 150.423 41.9873C151.142 42.1403 151.907 42.2168 152.718 42.2168C153.33 42.2168 153.98 42.1709 154.669 42.0791C155.373 41.9873 156.076 41.8649 156.78 41.7119C157.499 41.5436 158.211 41.36 158.915 41.1611C159.634 40.9469 160.322 40.7251 160.98 40.4956V47.0132ZM146.27 33.978C146.637 33.9627 147.103 33.9398 147.669 33.9092C148.251 33.8786 148.863 33.825 149.505 33.7485C150.148 33.672 150.791 33.5649 151.433 33.4272C152.076 33.2896 152.657 33.1136 153.177 32.8994C153.697 32.6852 154.118 32.4175 154.439 32.0962C154.761 31.7749 154.921 31.3848 154.921 30.9258C154.921 30.1455 154.608 29.5259 153.98 29.0669C153.368 28.5926 152.512 28.3555 151.41 28.3555C150.905 28.3555 150.362 28.432 149.781 28.585C149.199 28.7227 148.656 28.998 148.151 29.4111C147.646 29.8242 147.218 30.3979 146.866 31.1323C146.514 31.8667 146.315 32.8153 146.27 33.978Z" fill="#4BAD5A"/>
<path d="M191.296 23.9722C190.669 23.6968 189.934 23.4214 189.093 23.146C188.267 22.8553 187.395 22.5952 186.477 22.3657C185.574 22.1362 184.656 21.9526 183.723 21.8149C182.789 21.6619 181.91 21.5854 181.083 21.5854C179.645 21.5854 178.521 21.769 177.71 22.1362C176.899 22.5034 176.494 23.123 176.494 23.9951C176.494 24.4082 176.631 24.7754 176.907 25.0967C177.197 25.4027 177.603 25.6934 178.123 25.9688C178.643 26.2288 179.263 26.4889 179.982 26.749C180.716 26.9938 181.527 27.2539 182.415 27.5293L184.09 28.0571C185.497 28.4855 186.76 29.0057 187.876 29.6177C188.993 30.2144 189.934 30.9258 190.699 31.752C191.479 32.5628 192.076 33.4961 192.489 34.5518C192.902 35.6074 193.109 36.8084 193.109 38.1548C193.109 39.7306 192.856 41.1688 192.352 42.4692C191.862 43.7544 191.089 44.856 190.034 45.7739C188.978 46.6919 187.624 47.4033 185.972 47.9082C184.335 48.4131 182.361 48.6655 180.051 48.6655C178.001 48.6655 175.958 48.4972 173.923 48.1606C171.904 47.8241 169.861 47.235 167.796 46.3936V38.8203C169.77 39.8301 171.682 40.5721 173.533 41.0464C175.4 41.5054 177.236 41.7349 179.041 41.7349C180.525 41.7349 181.604 41.4977 182.277 41.0234C182.965 40.5492 183.31 39.8913 183.31 39.0498C183.31 38.5449 183.18 38.1165 182.919 37.7646C182.675 37.3975 182.269 37.0609 181.703 36.7549C181.152 36.4489 180.426 36.1429 179.523 35.8369C178.62 35.5156 177.526 35.1561 176.241 34.7583C174.956 34.3758 173.763 33.8939 172.661 33.3125C171.575 32.7311 170.634 32.035 169.838 31.2241C169.043 30.3979 168.416 29.4417 167.957 28.3555C167.513 27.2692 167.291 26.0299 167.291 24.6377C167.291 23.1995 167.543 21.8838 168.048 20.6904C168.553 19.4971 169.326 18.4797 170.366 17.6382C171.407 16.7814 172.722 16.1159 174.313 15.6416C175.92 15.1673 177.825 14.9302 180.028 14.9302C180.9 14.9302 181.826 14.9684 182.805 15.0449C183.784 15.1214 184.778 15.2362 185.788 15.3892C186.813 15.5422 187.823 15.741 188.817 15.9858C189.812 16.2306 190.753 16.5213 191.64 16.8579L191.296 23.9722ZM207.98 35.6533C207.98 36.7702 208.11 37.7417 208.37 38.5679C208.646 39.394 209.028 40.0825 209.518 40.6333C210.007 41.1688 210.596 41.5742 211.285 41.8496C211.973 42.1097 212.746 42.2397 213.603 42.2397C214.704 42.2397 215.744 42.0944 216.724 41.8037C217.703 41.4977 218.705 41.0846 219.73 40.5645L221.199 46.5312C220.526 46.8831 219.799 47.1968 219.019 47.4722C218.238 47.7323 217.435 47.9465 216.609 48.1147C215.783 48.2983 214.941 48.436 214.084 48.5278C213.243 48.6196 212.417 48.6655 211.606 48.6655C209.755 48.6655 208.011 48.4054 206.374 47.8853C204.736 47.3651 203.298 46.5695 202.059 45.4985C200.835 44.4276 199.864 43.0736 199.145 41.4365C198.425 39.7995 198.066 37.8641 198.066 35.6304C198.066 33.3966 198.425 31.4613 199.145 29.8242C199.864 28.1872 200.835 26.8332 202.059 25.7622C203.298 24.6912 204.736 23.8957 206.374 23.3755C208.011 22.8553 209.755 22.5952 211.606 22.5952C212.417 22.5952 213.243 22.6411 214.084 22.7329C214.941 22.8247 215.783 22.9624 216.609 23.146C217.435 23.3143 218.238 23.5361 219.019 23.8115C219.799 24.0716 220.526 24.3776 221.199 24.7295L219.73 30.6963C218.705 30.1761 217.703 29.7707 216.724 29.48C215.744 29.174 214.704 29.021 213.603 29.021C212.746 29.021 211.973 29.1587 211.285 29.4341C210.596 29.6942 210.007 30.0996 209.518 30.6504C209.028 31.2012 208.646 31.8973 208.37 32.7388C208.11 33.5649 207.98 34.5365 207.98 35.6533ZM227.67 12.75H237.584V26.6343C238.013 26.0376 238.564 25.4945 239.237 25.0049C239.91 24.5153 240.652 24.0946 241.463 23.7427C242.274 23.3755 243.131 23.1001 244.033 22.9165C244.936 22.7176 245.839 22.6182 246.741 22.6182C247.858 22.6182 248.906 22.8018 249.885 23.1689C250.88 23.5208 251.744 24.0946 252.479 24.8901C253.213 25.6857 253.787 26.7108 254.2 27.9653C254.628 29.2046 254.842 30.7039 254.842 32.4634V48H244.928V34.9189C244.928 33.7715 244.829 32.8153 244.63 32.0503C244.446 31.2853 244.201 30.6733 243.896 30.2144C243.59 29.7401 243.238 29.4111 242.84 29.2275C242.457 29.0286 242.067 28.9292 241.669 28.9292C241.21 28.9292 240.751 29.021 240.292 29.2046C239.849 29.3729 239.436 29.6177 239.053 29.939C238.686 30.2603 238.372 30.6427 238.112 31.0864C237.852 31.5301 237.676 32.0197 237.584 32.5552V48H227.67V12.75ZM274.349 48.6655C272.544 48.6655 270.937 48.4972 269.53 48.1606C268.122 47.8241 266.891 47.3574 265.835 46.7607C264.779 46.1641 263.877 45.4603 263.127 44.6494C262.393 43.8232 261.796 42.9282 261.337 41.9644C260.878 41.0005 260.541 39.9831 260.327 38.9121C260.128 37.8411 260.029 36.7549 260.029 35.6533C260.029 34.5671 260.128 33.4961 260.327 32.4404C260.541 31.3695 260.878 30.3521 261.337 29.3882C261.796 28.409 262.393 27.514 263.127 26.7031C263.861 25.877 264.756 25.1655 265.812 24.5688C266.883 23.9569 268.122 23.4826 269.53 23.146C270.937 22.7941 272.544 22.6182 274.349 22.6182C276.154 22.6182 277.761 22.7941 279.168 23.146C280.576 23.4826 281.808 23.9569 282.863 24.5688C283.934 25.1655 284.837 25.877 285.571 26.7031C286.306 27.514 286.902 28.409 287.361 29.3882C287.82 30.3521 288.149 31.3695 288.348 32.4404C288.562 33.4961 288.669 34.5671 288.669 35.6533C288.669 36.7549 288.562 37.8411 288.348 38.9121C288.149 39.9831 287.82 41.0005 287.361 41.9644C286.902 42.9282 286.298 43.8232 285.548 44.6494C284.814 45.4603 283.919 46.1641 282.863 46.7607C281.808 47.3574 280.576 47.8241 279.168 48.1606C277.761 48.4972 276.154 48.6655 274.349 48.6655ZM269.943 35.6533C269.943 36.4795 270.019 37.2904 270.172 38.0859C270.325 38.8662 270.57 39.57 270.907 40.1973C271.259 40.8092 271.71 41.3065 272.261 41.689C272.827 42.0562 273.523 42.2397 274.349 42.2397C275.175 42.2397 275.864 42.0562 276.415 41.689C276.981 41.3065 277.432 40.8092 277.769 40.1973C278.12 39.57 278.373 38.8662 278.526 38.0859C278.679 37.2904 278.755 36.4795 278.755 35.6533C278.755 34.8271 278.679 34.0239 278.526 33.2437C278.373 32.4481 278.12 31.7443 277.769 31.1323C277.432 30.505 276.981 30.0002 276.415 29.6177C275.864 29.2352 275.175 29.0439 274.349 29.0439C273.523 29.0439 272.827 29.2352 272.261 29.6177C271.71 30.0002 271.259 30.505 270.907 31.1323C270.57 31.7443 270.325 32.4481 270.172 33.2437C270.019 34.0239 269.943 34.8271 269.943 35.6533ZM294.085 12.75H304V48H294.085V12.75ZM317.126 48.6655C316.147 48.6655 315.206 48.5278 314.304 48.2524C313.416 47.9771 312.628 47.5563 311.94 46.9902C311.251 46.4242 310.701 45.7127 310.288 44.856C309.89 43.9839 309.691 42.9588 309.691 41.7808C309.691 40.6486 309.875 39.6694 310.242 38.8433C310.609 38.0018 311.098 37.2827 311.71 36.686C312.338 36.0894 313.064 35.5998 313.891 35.2173C314.732 34.8195 315.619 34.5135 316.553 34.2993C317.486 34.0698 318.442 33.9168 319.421 33.8403C320.416 33.7485 321.38 33.7026 322.313 33.7026C322.956 33.7026 323.575 33.7179 324.172 33.7485C324.769 33.7791 325.327 33.8174 325.847 33.8633C325.817 32.8994 325.633 32.1038 325.296 31.4766C324.96 30.834 324.516 30.3291 323.965 29.9619C323.415 29.5794 322.772 29.3117 322.038 29.1587C321.303 29.0057 320.531 28.9292 319.72 28.9292C318.97 28.9292 318.197 28.9827 317.402 29.0898C316.622 29.1816 315.857 29.304 315.107 29.457C314.357 29.5947 313.638 29.7477 312.95 29.916C312.277 30.0843 311.68 30.2373 311.16 30.375V23.9492C311.909 23.7809 312.713 23.6203 313.569 23.4673C314.441 23.299 315.344 23.1536 316.277 23.0312C317.211 22.9089 318.159 22.8094 319.123 22.7329C320.102 22.6564 321.066 22.6182 322.015 22.6182C323.193 22.6182 324.348 22.6947 325.48 22.8477C326.627 22.9854 327.706 23.2225 328.716 23.5591C329.741 23.8957 330.682 24.347 331.539 24.9131C332.411 25.4792 333.153 26.1829 333.765 27.0244C334.392 27.8506 334.882 28.8298 335.233 29.9619C335.585 31.0941 335.761 32.4022 335.761 33.8862V48H326.306V43.8921C325.939 44.6418 325.426 45.3149 324.769 45.9116C324.111 46.493 323.369 46.9902 322.542 47.4033C321.716 47.8164 320.837 48.13 319.903 48.3442C318.97 48.5584 318.044 48.6655 317.126 48.6655ZM321.005 43.2725C321.433 43.2725 321.923 43.1577 322.474 42.9282C323.04 42.6834 323.568 42.3162 324.057 41.8267C324.562 41.3371 324.983 40.7174 325.319 39.9678C325.671 39.2181 325.847 38.3231 325.847 37.2827H325.09C324.355 37.2827 323.598 37.3592 322.818 37.5122C322.053 37.6652 321.349 37.8947 320.707 38.2007C320.064 38.5067 319.536 38.8815 319.123 39.3252C318.71 39.7689 318.503 40.2814 318.503 40.8628C318.503 41.3218 318.58 41.7043 318.733 42.0103C318.886 42.3162 319.077 42.5687 319.307 42.7676C319.551 42.9512 319.819 43.0812 320.11 43.1577C320.416 43.2342 320.714 43.2725 321.005 43.2725ZM342.417 23.2378H351.849C351.818 23.6356 351.795 24.0793 351.78 24.5688C351.764 25.0431 351.757 25.548 351.757 26.0835C351.757 26.6037 351.757 27.1315 351.757 27.667C351.757 28.2025 351.757 28.715 351.757 29.2046C352.063 28.4549 352.461 27.6899 352.95 26.9097C353.44 26.1141 354.014 25.4027 354.671 24.7754C355.345 24.1481 356.102 23.6356 356.943 23.2378C357.8 22.8247 358.756 22.6182 359.812 22.6182C360.011 22.6182 360.225 22.6335 360.455 22.6641C360.699 22.6794 360.937 22.71 361.166 22.7559C361.396 22.8018 361.61 22.863 361.809 22.9395C362.023 23.0007 362.199 23.0771 362.336 23.1689L361.533 32.624C360.845 32.3639 360.118 32.1727 359.353 32.0503C358.588 31.9126 357.923 31.8438 357.356 31.8438C356.576 31.8438 355.888 31.9432 355.291 32.1421C354.71 32.3257 354.212 32.5705 353.799 32.8765C353.386 33.1825 353.057 33.519 352.812 33.8862C352.583 34.2534 352.422 34.613 352.331 34.9648V48H342.417V23.2378ZM385.791 30.6504C384.261 29.9466 382.761 29.4035 381.292 29.021C379.839 28.6232 378.562 28.4243 377.46 28.4243C376.297 28.4243 375.471 28.5391 374.981 28.7686C374.492 28.9827 374.247 29.3652 374.247 29.916C374.247 30.4056 374.607 30.7957 375.326 31.0864C376.045 31.3618 377.1 31.6831 378.493 32.0503C379.885 32.4175 381.132 32.8229 382.233 33.2666C383.335 33.7103 384.268 34.2611 385.033 34.9189C385.813 35.5768 386.403 36.3647 386.8 37.2827C387.213 38.2007 387.42 39.3252 387.42 40.6562C387.42 41.8496 387.19 42.9435 386.731 43.938C386.272 44.9172 385.576 45.7586 384.643 46.4624C383.71 47.1662 382.532 47.7093 381.109 48.0918C379.686 48.4743 378.011 48.6655 376.083 48.6655C374.369 48.6655 372.648 48.5355 370.919 48.2754C369.191 48.0306 367.446 47.5869 365.687 46.9443V39.853C367.263 40.5415 368.846 41.0923 370.438 41.5054C372.029 41.9185 373.543 42.125 374.981 42.125C377.567 42.125 378.86 41.5895 378.86 40.5186C378.86 40.335 378.799 40.1667 378.676 40.0137C378.554 39.8607 378.324 39.7153 377.988 39.5776C377.667 39.4246 377.208 39.2716 376.611 39.1187C376.029 38.9504 375.28 38.7515 374.362 38.522C373.092 38.216 371.891 37.8258 370.759 37.3516C369.642 36.862 368.663 36.2729 367.821 35.5845C366.995 34.8807 366.337 34.0622 365.848 33.1289C365.373 32.1956 365.136 31.1323 365.136 29.939C365.136 28.868 365.358 27.8812 365.802 26.9785C366.261 26.0758 366.942 25.3032 367.844 24.6606C368.762 24.0181 369.894 23.5208 371.241 23.1689C372.602 22.8018 374.178 22.6182 375.968 22.6182C377.009 22.6182 378.003 22.6641 378.952 22.7559C379.916 22.8477 380.826 22.9624 381.683 23.1001C382.539 23.2225 383.335 23.3602 384.069 23.5132C384.819 23.6509 385.507 23.7809 386.135 23.9033L385.791 30.6504Z" fill="#474B48"/>
<path d="M69 25C72.5 25.9331 75.5 25.9331 79 25V48H69V25Z" fill="#4BAD5A"/>
<path fill-rule="evenodd" clip-rule="evenodd" d="M81.9231 17.9615C81.9231 21.785 78.5497 23.5 73.9615 23.5C69.3733 23.5 66 21.785 66 17.9615C66 14.138 69.3733 10 73.9615 10C78.5497 10 81.9231 14.138 81.9231 17.9615ZM71.8846 18.6538C71.8846 19.4185 71.4197 20.0385 70.8462 20.0385C70.2726 20.0385 69.8077 19.4185 69.8077 18.6538C69.8077 17.8891 70.2726 17.2692 70.8462 17.2692C71.4197 17.2692 71.8846 17.8891 71.8846 18.6538ZM77.0769 20.0385C77.6504 20.0385 78.1154 19.4185 78.1154 18.6538C78.1154 17.8891 77.6504 17.2692 77.0769 17.2692C76.5034 17.2692 76.0385 17.8891 76.0385 18.6538C76.0385 19.4185 76.5034 20.0385 77.0769 20.0385Z" fill="#4BAD5A"/>
</svg>
